<svg width="1236" height="1232" viewBox="0 0 1236 1232" fill="none" xmlns="http://www.w3.org/2000/svg">
<g clip-path="url(#clip0_1_2)">
<path d="M268.261 807.93C277.246 794.846 329.378 706.911 342.546 760.262C349.779 789.569 342.389 814.07 324.64 836.966C319.575 843.5 302.512 881.654 321.978 882.456C338.989 883.158 365.169 852.48 373.76 839.507C406.363 790.27 386.514 704.399 444.656 670.855C462.782 660.398 489.987 659.681 510.351 657.063C524.359 655.262 528.955 673.378 536.12 683.8" stroke="#F1F3F5" stroke-width="87" stroke-linecap="round"/>
<path d="M584.03 707.755C631.818 675.622 676.426 639.464 721.226 603.346C735.069 592.186 739.826 590.695 757.279 594.998C787.078 602.346 802.627 636.635 818.013 660.813C838.921 693.668 839.2 734.044 854.067 768.731" stroke="#F1F3F5" stroke-width="87" stroke-linecap="square"/>
<path d="M562.253 768.731C586.21 765.163 610.878 760.792 633.392 751.551C652.559 743.684 657.729 735.144 667.267 719.128C679.732 698.197 720.854 678.431 743.151 670.795C772.933 660.595 800.091 714.893 808.151 733.295C819.479 759.157 808.794 785.303 830.112 803.575" stroke="#F1F3F5" stroke-width="87" stroke-linecap="round"/>
<path d="M1167.66 862.373C1096.4 839.342 1027.78 825.036 953.274 820.996C929.48 819.706 903.31 820.192 880.441 812.407C878.391 811.708 875.225 811.375 874.755 809.261C874.668 808.871 875.207 808.471 875.602 808.414C882.948 807.365 890.446 808.193 897.863 808.414C958.564 810.224 1019.04 815.781 1079.7 818.335C1096.51 819.042 1112.85 818.234 1129.18 822.69C1142.36 826.283 1153.71 833.178 1163.3 842.774" stroke="#F1F3F5" stroke-width="87" stroke-linecap="round"/>
<path d="M906.332 766.554C905.624 715.943 901.364 665.48 901.976 614.839C902.245 592.607 902.538 568.815 908.993 547.33C915.617 525.284 935.664 518.693 952.427 505.954C971.189 491.694 984.129 472.38 997.312 453.205C1006.66 439.607 1013.48 443.007 1028.77 446.914C1066.17 456.472 1086.31 476.446 1098.7 512.608C1102.05 522.391 1105.9 533.879 1093.25 538.257C1073.25 545.181 1048.73 541.551 1028.16 540.071C1011.68 538.885 991.691 535.078 976.14 542.854C962.314 549.767 941.591 571.373 942.627 588.465C943.342 600.26 959.044 571.433 966.582 562.332C982.118 543.574 999.219 522.239 1020.06 508.978C1028.96 503.313 1035.39 494.59 1043.53 487.806" stroke="#F1F3F5" stroke-width="87" stroke-linecap="round"/>
<path d="M843.178 618.469C847.543 584.507 851.813 550.607 854.671 516.479C855.908 501.718 853.893 479.888 863.019 466.755C871.151 455.053 884.336 445.918 895.443 437.477C912.814 424.275 931.482 408.991 951.822 400.456C962.159 396.118 974.679 399.887 984.729 403.117C996.55 406.917 1023.97 417.005 996.223 420.297C974.541 422.869 952.102 424.639 930.287 425.136C900.537 425.814 895.211 416.033 887.942 388.841C884.22 374.917 882.197 358.887 872.819 347.223C865.896 338.611 860.19 336.768 865.923 323.752C876.527 299.678 906.848 288.337 917.462 317.944C917.689 318.578 920.81 337.592 916.494 333.43C903.449 320.851 896.829 296.023 891.814 279.471C886.724 262.677 884.29 245.275 879.473 228.416C872.759 204.917 861.786 183.341 851.042 161.512C836.929 132.839 824.597 102.214 797.688 82.9933M752.198 144.09C745.484 152.161 741.967 154.805 733.929 159.697C732.541 160.542 728.545 160.967 729.695 162.117C733.727 166.149 734.214 151.237 733.929 145.542C733.57 138.363 733.079 130.497 731.631 123.402C729.698 113.93 734.298 142.594 736.712 151.954C744.719 182.999 752.372 214.818 763.328 244.991C771.59 267.742 787.326 285.049 800.229 305.12C823.703 341.636 853.13 345.055 854.671 388.841C855.762 419.81 830.029 491.392 819.949 519.988C813.618 537.947 807.404 551.267 797.446 566.204" stroke="#F1F3F5" stroke-width="87" stroke-linecap="round"/>
<path d="M762.603 962.548C765.18 953.528 771.916 944.798 776.153 936.415C782.417 924.021 788.147 911.2 796.962 900.362C802.374 893.708 806.525 887.349 810.512 879.795C814 873.185 814.516 876.943 816.078 881.851C817.945 887.72 833.33 889.252 820.312 880.763C812.06 875.381 819.076 871.149 810.512 868.295" stroke="#F1F3F5" stroke-width="87" stroke-linecap="round"/>
<path d="M663 766.323C683.082 765.1 698.601 767.97 718.651 766.323C724.451 765.847 730.651 766.323 737.151 766.323C737.151 760.863 743.864 767.223 744.152 766.323C746.549 758.834 746.823 751.194 745.688 743.458C745.592 742.803 744.126 738.536 745.176 737.486" stroke="#F1F3F5" stroke-width="87" stroke-linecap="round"/>
<path d="M349.5 904C385 904 411.983 865.47 425.423 828.749C433.597 806.417 431.473 772.328 448.83 754.81C463.978 739.521 490.458 726.475 498.487 754.154C501.222 763.584 495.719 760.293 498.487 769.685C503.406 786.376 519.1 773.819 521.019 769.685C526.645 757.568 531.12 745.46 538.957 734.575C544.371 727.055 549.939 719.386 554.27 711.168C566.739 687.508 575.713 662.205 589.927 639.417C607.867 610.652 633.282 587.314 660.147 567.009C693.583 541.737 732.489 535.912 768.322 516.367C775.492 512.455 782.149 505.586 788.775 500.616" stroke="#F1F3F5" stroke-width="87" stroke-linecap="round"/>
<path d="M300.513 695.527C357.144 648.63 415.852 606.139 482.518 574.665C528.481 552.965 577.709 538.407 626.896 525.992C648.509 520.537 670.765 517.806 691.539 509.366C699.904 505.968 724.26 494.153 716.367 498.538C713.007 500.405 701.341 503.17 701.054 503.241C675.216 509.656 648.732 514.339 622.084 515.492C602.97 516.318 586.976 515.235 568.27 512.429C555.276 510.48 541.902 505.08 528.566 505.648C503.754 506.703 478.37 522.791 456.267 532.555C436.817 541.146 416.106 547.955 397.203 557.711C389.46 561.708 373.417 571.246 367.453 577.181C341.415 603.09 401.403 592.434 403.547 592.056C442.986 585.096 484.558 571.768 522.331 559.461C539.938 553.725 557.335 547.365 574.833 541.305C584.345 538.011 610.536 525.618 603.927 533.211C594.843 543.648 582.602 550.951 573.083 560.993C555.911 579.106 542.8 601.522 524.3 618.307C491.039 648.484 441.865 660.331 401.797 678.683C387.049 685.438 343.591 705.086 359.687 703.074C361.654 702.828 362.987 701.668 364.609 700.559C382.312 688.446 399.829 674.888 416.672 661.839C475.494 616.271 530.884 568.676 582.161 514.835C594.058 502.344 601.161 490.649 618.584 496.241C620.982 497.011 626.9 496.938 625.584 499.085C623.104 503.129 619.212 506.146 615.631 509.257C591.624 530.111 542.697 567.821 522.331 583.525C483.76 613.267 440.332 646.649 399.938 674.636C370.61 694.955 339.577 714.718 305.545 726.372C295.883 729.68 273.374 737.156 265.075 725.497C260.69 719.336 268.397 713.93 273.388 711.934C280.187 709.214 270.962 755.93 270.763 756.998C265.943 782.788 255.837 809.421 253.918 835.64C252.777 851.235 258.672 866.688 262.778 881.469C264.592 887.999 265.795 899.839 270.981 905.314C275.109 909.671 283.853 905.31 277.107 904.658C266.885 903.668 253.807 902.557 243.746 905.204C242.718 905.475 245.467 906.527 246.481 906.845C256.663 910.04 266.655 913.886 276.888 916.908C280.867 918.083 308.875 922.89 287.716 918.658C272.977 915.71 258.344 913.588 243.418 912.095" stroke="#F1F3F5" stroke-width="87" stroke-linecap="round"/>
<path d="M64.2576 1162.13C64.753 1161.75 84.0118 1148.57 76.7266 1148.57C68.0702 1148.57 73.3702 1147.83 78.9142 1143.43C88.8593 1135.54 94.6144 1125.26 101.665 1114.88C111.614 1100.23 116.027 1082.9 126.384 1068.4C137.653 1052.62 148.204 1036.17 153.838 1017.54C158.668 1001.56 168.11 987.209 179.979 975.534C187.4 968.235 202.235 962.729 206.011 952.346C208.93 944.319 214.322 934.827 219.793 928.283C228.784 917.529 238.021 899.943 249.325 892.407" stroke="#F1F3F5" stroke-width="87" stroke-linecap="round"/>
<path d="M299 670.355C303.427 656.141 312.347 643.504 323.391 633.495C326.475 630.7 326.563 632.2 326.563 634.917" stroke="#F1F3F5" stroke-width="87" stroke-linecap="round"/>
<path d="M186.323 664.027C190.513 696.152 220.123 669.061 211.917 658.12" stroke="#F1F3F5" stroke-width="87" stroke-linecap="round"/>
<path d="M237.512 1008.57C243.485 1006.39 249.714 1006.6 255.997 1006.6C279.09 1006.6 302.929 1004.08 325.67 1000.36C343.968 997.376 359.838 988.991 377.625 984.722C395.77 980.367 418.373 973.163 433.298 961.862C445.921 952.305 454.053 934.608 461.517 921.064C469.85 905.946 478.625 890.261 485.143 874.25C488.608 865.738 494.678 859.207 497.393 851.062" stroke="#F1F3F5" stroke-width="87" stroke-linecap="round"/>
<path d="M883.967 191.205C913.511 317.334 914.976 350.298 891.512 371.481C872.639 372.543 801.542 336.212 761.134 246.579C720.727 156.947 740.307 119.783 758.535 94.0521C786.866 83.5993 840.356 100.899 883.967 191.205Z" fill="url(#paint0_linear_1_2)"/>
<path d="M853.089 190.441C886.931 310.827 884.905 320.316 884 351.376C856.279 339.483 811.72 291.561 790.723 249.214C765.785 198.92 752.208 132.742 782.074 118.96C795.464 112.78 822.645 130.683 853.089 190.441Z" fill="#E977A0"/>
<mask id="path-17-inside-1_1_2" fill="white">
<path d="M765.134 1.16138C759.937 4.23366 755.806 21.866 750.343 63.6758C749.943 66.8816 749.41 69.6867 749.143 69.9539C749.01 70.0874 743.28 67.683 736.618 64.4772C720.228 56.5961 702.505 50.4515 696.242 50.4515C691.445 50.4515 691.045 50.8522 689.047 56.0618C685.182 66.748 679.852 100.677 678.253 125.255C677.187 139.815 679.453 174.545 682.384 191.777C687.314 220.63 698.108 254.558 710.767 280.205C724.625 308.256 739.149 327.892 768.998 358.882C791.917 382.659 794.316 385.865 796.315 395.082C798.447 404.967 796.848 412.714 791.251 420.195C782.057 432.35 771.396 439.964 755.939 445.441C747.145 448.647 744.346 448.914 726.224 448.914C712.099 448.78 701.706 447.979 690.912 446.109C660.131 440.498 651.07 439.83 612.96 439.964C568.054 440.231 551.397 442.235 504.359 453.455C467.315 462.272 423.075 479.904 389.762 499.005C345.656 524.519 301.017 562.455 271.834 599.189C265.971 606.669 260.774 612.68 260.241 612.68C259.708 612.814 255.444 609.875 250.647 606.268C231.059 591.308 206.274 587.968 182.156 597.051C134.052 615.084 116.596 669.718 145.112 712.73C155.638 728.625 167.498 737.575 190.151 746.792C195.747 749.196 195.614 747.861 191.217 768.432C189.751 774.977 187.752 788.602 186.553 798.487C185.354 808.371 184.154 817.722 183.755 819.191C183.355 820.66 182.689 836.957 182.022 855.391L181.09 888.785L177.092 896.132C173.894 901.876 170.163 905.482 159.103 913.764C135.651 931.396 128.055 940.212 119.394 959.715C101.938 999.254 84.2153 1031.85 68.6248 1053.49C63.5613 1060.3 50.6358 1075.13 39.7091 1086.21C23.1859 1103.04 8.66139 1120.54 8.66139 1123.61C8.66139 1124.02 6.66261 1128.42 4.39732 1133.37C0.266504 1142.05 0 1143.25 0 1157.81C0 1170.37 0.533009 1174.64 3.0648 1181.72C7.06236 1192.81 13.192 1202.16 22.1199 1210.84C29.3155 1218.05 44.906 1227.27 49.5698 1227.27C50.9023 1227.27 52.7678 1227.94 53.5674 1228.74C54.3669 1229.54 61.6957 1230.61 69.6909 1231.01C90.7447 1231.95 102.737 1228.07 120.593 1214.45C141.647 1198.42 147.777 1186.93 207.474 1049.61C211.205 1041.2 218.4 1025.84 223.597 1015.55C231.592 999.655 234.39 995.647 241.986 988.167C254.645 975.744 258.109 974.943 329.133 966.794C396.159 959.181 421.476 948.628 450.126 916.302C456.655 908.822 459.986 904.146 470.78 887.316C473.045 883.575 478.642 871.42 482.772 861.268C484.638 856.459 487.17 852.051 488.236 851.25C494.765 847.109 536.473 833.484 559.659 827.874C617.757 813.848 657.5 811.115 698.5 811.115C705 811.115 745.373 814.115 753.5 815.05C761.627 815.985 807.126 817.385 789.919 818.39C772.472 792.714 780.741 799.274 772.745 795C770.662 793.878 759.123 790.199 735 787.667C716.135 785.686 700.83 786.186 694.5 785.667C688.17 785.148 657.5 784.667 618.69 787.667C584.044 791.674 531.543 804.097 502.494 815.05L493.566 818.39L494.232 814.115C495.964 803.162 496.364 796.349 496.497 777.381C496.764 752.803 496.231 751.601 483.439 750.666C476.51 750.265 475.444 750.532 472.512 753.604C469.447 756.944 469.314 757.879 468.914 777.381C468.781 788.602 467.981 802.761 467.182 808.906C462.385 843.235 445.062 880.77 424.275 902.276C405.753 921.378 383.5 930.862 346.455 935.404C294.487 941.682 257.71 947.292 248.115 950.097C238.255 953.036 227.461 959.715 219.333 968.13C206.008 981.622 201.877 990.171 154.306 1098.37C123.525 1168.23 110.733 1189.47 94.2092 1197.48C87.6799 1200.56 84.8816 1201.09 73.9549 1201.09C62.4952 1201.22 60.4965 1200.82 53.5674 1197.22C37.8436 1189.33 27.8497 1173.17 28.3827 1156.47C28.6492 1144.85 35.0453 1131.5 44.906 1122.28C72.2226 1096.77 89.0124 1077.66 100.206 1059.63C112.332 1039.99 129.255 1007.27 146.844 969.466C149.376 963.989 152.174 957.978 152.973 956.375C153.773 954.639 158.437 950.097 163.234 946.357C191.617 923.916 199.878 915.901 205.608 904.681L210.405 895.33L211.338 861.936C212.67 817.054 215.602 795.147 225.463 756.41C247.183 670.653 299.551 595.716 374.705 543.086C430.005 504.215 501.028 478.034 571.918 470.553C606.031 466.947 654.135 468.817 689.58 475.362C711.3 479.236 743.28 479.369 758.205 475.362C772.329 471.622 791.118 462.138 800.046 454.257C809.373 445.975 819.501 430.48 822.965 418.859C825.23 411.512 825.763 407.104 825.23 397.754C824.697 387.334 824.031 384.663 819.501 375.446C815.236 366.763 811.505 361.955 796.181 346.326C763.535 312.798 750.742 295.433 736.351 265.378C721.827 235.189 713.565 206.47 709.568 172.675C706.902 151.169 708.102 104.551 711.7 88.1205C711.966 86.5176 713.299 85.1818 714.365 85.1818C716.497 85.1818 755.007 105.352 758.871 108.424C762.202 111.096 768.065 113.233 772.063 113.233C779.258 113.233 779.525 111.764 779.525 76.3656C779.525 52.3216 779.925 43.5055 781.124 42.3033C782.456 40.9676 784.055 41.5019 788.853 44.8413C792.184 47.2457 795.249 49.1157 795.648 49.1157C797.647 49.1157 827.762 74.3619 838.689 85.3153C853.48 100.142 875.2 127.125 883.728 141.284C892.256 155.444 901.584 172.274 904.649 178.953C906.514 183.228 909.712 190.174 911.578 194.315C919.173 211.012 928.634 239.063 933.831 260.836C938.628 280.205 940.893 293.162 945.291 328.026C947.556 345.124 949.954 360.218 950.621 361.554C952.619 365.294 960.348 368.366 967.81 368.366C980.736 368.366 1009.65 379.854 1030.71 393.345C1065.62 415.653 1089.74 438.628 1110.66 469.485C1121.45 485.247 1131.18 504.482 1133.31 514.367C1136.11 526.79 1130.51 538.411 1116.65 548.963C1104.53 558.18 1096.4 560.451 1067.75 562.722C1012.72 567.13 996.593 570.737 979.137 582.358C957.816 596.651 947.023 619.225 936.229 671.588C919.44 753.604 924.77 782.457 958.882 794.746C967.011 797.685 969.143 797.819 1005.39 797.819C1026.31 797.819 1064.68 797.551 1090.67 797.151L1137.97 796.483L1149.7 800.223C1168.62 806.1 1181.28 813.314 1194.21 825.736C1203.93 834.82 1207.93 843.369 1207.93 854.456C1207.8 869.817 1199.14 882.64 1183.15 890.655C1174.88 894.93 1173.28 895.33 1161.96 895.33C1153.16 895.33 1148.1 894.529 1143.84 892.792C1131.44 887.716 1124.11 883.976 1116.52 879.167C1105.06 871.687 1103.19 870.752 1090.67 867.012L1079.34 863.539L1009.38 862.604C935.03 861.535 927.301 860.867 897.72 853.921C850.948 842.701 812.838 813.18 789.919 770.435C780.058 752.001 774.595 733.835 770.73 706.452C769.398 697.235 768.465 694.563 765.267 690.823C762.202 687.35 760.203 686.281 756.872 686.281C743.014 686.281 739.15 694.029 741.681 716.47C744.48 741.85 757.805 776.045 775.128 802.761C787.653 821.863 798.18 832.816 822.166 851.65C825.23 854.055 848.016 866.611 854.146 869.283C873.468 877.832 900.251 884.511 926.768 887.449C937.429 888.651 965.012 889.587 1003.39 889.987C1036.97 890.388 1067.48 891.323 1072.68 892.258C1083.74 893.995 1091.73 897.334 1105.99 906.284C1118.92 914.298 1128.78 919.107 1138.64 921.912C1148.9 924.851 1170.62 924.985 1180.75 922.046C1206.73 914.699 1226.05 896.666 1233.25 873.156C1237.38 859.799 1236.58 840.029 1231.52 828.809C1217.52 798.086 1177.55 772.84 1134.78 767.764C1128.65 766.962 1096.13 767.096 1052.56 768.031C986.199 769.233 979.803 769.233 972.74 767.096C967.544 765.626 963.413 763.356 960.348 760.283L955.684 755.608L956.484 733.969C957.949 697.235 968.077 650.082 979.67 627.106C987.798 610.81 996.992 603.463 1015.65 597.986C1024.98 595.315 1033.1 594.513 1058.69 593.445C1089.47 592.109 1104.53 588.77 1123.18 579.018C1143.57 568.466 1159.43 548.028 1162.62 528.125C1164.22 518.107 1163.69 513.432 1159.69 500.608C1149.7 469.084 1110.79 417.657 1076.01 390.273C1050.16 369.836 1018.18 352.337 991.129 343.521L975.006 338.311L974.206 326.957C972.074 299.975 964.612 259.233 956.75 232.117C938.361 168.267 907.047 114.168 860.942 66.6145C838.422 43.5056 813.637 23.8696 788.853 9.57678C771.396 -0.575121 769.398 -1.24302 765.134 1.16138ZM224.53 624.702C228.527 626.171 234.657 629.778 237.988 632.583L244.251 637.659L238.388 647.41C229.06 662.638 216.801 687.751 210.405 704.581C207.207 713.13 204.275 720.344 204.009 720.611C203.609 721.011 198.945 719.141 193.615 716.603C169.63 704.849 157.237 684.411 160.436 661.436C162.035 650.349 166.432 641.934 174.027 634.987C188.951 621.496 206.674 617.89 224.53 624.702Z"/>
</mask>
<path d="M765.134 1.16138C759.937 4.23366 755.806 21.866 750.343 63.6758C749.943 66.8816 749.41 69.6867 749.143 69.9539C749.01 70.0874 743.28 67.683 736.618 64.4772C720.228 56.5961 702.505 50.4515 696.242 50.4515C691.445 50.4515 691.045 50.8522 689.047 56.0618C685.182 66.748 679.852 100.677 678.253 125.255C677.187 139.815 679.453 174.545 682.384 191.777C687.314 220.63 698.108 254.558 710.767 280.205C724.625 308.256 739.149 327.892 768.998 358.882C791.917 382.659 794.316 385.865 796.315 395.082C798.447 404.967 796.848 412.714 791.251 420.195C782.057 432.35 771.396 439.964 755.939 445.441C747.145 448.647 744.346 448.914 726.224 448.914C712.099 448.78 701.706 447.979 690.912 446.109C660.131 440.498 651.07 439.83 612.96 439.964C568.054 440.231 551.397 442.235 504.359 453.455C467.315 462.272 423.075 479.904 389.762 499.005C345.656 524.519 301.017 562.455 271.834 599.189C265.971 606.669 260.774 612.68 260.241 612.68C259.708 612.814 255.444 609.875 250.647 606.268C231.059 591.308 206.274 587.968 182.156 597.051C134.052 615.084 116.596 669.718 145.112 712.73C155.638 728.625 167.498 737.575 190.151 746.792C195.747 749.196 195.614 747.861 191.217 768.432C189.751 774.977 187.752 788.602 186.553 798.487C185.354 808.371 184.154 817.722 183.755 819.191C183.355 820.66 182.689 836.957 182.022 855.391L181.09 888.785L177.092 896.132C173.894 901.876 170.163 905.482 159.103 913.764C135.651 931.396 128.055 940.212 119.394 959.715C101.938 999.254 84.2153 1031.85 68.6248 1053.49C63.5613 1060.3 50.6358 1075.13 39.7091 1086.21C23.1859 1103.04 8.66139 1120.54 8.66139 1123.61C8.66139 1124.02 6.66261 1128.42 4.39732 1133.37C0.266504 1142.05 0 1143.25 0 1157.81C0 1170.37 0.533009 1174.64 3.0648 1181.72C7.06236 1192.81 13.192 1202.16 22.1199 1210.84C29.3155 1218.05 44.906 1227.27 49.5698 1227.27C50.9023 1227.27 52.7678 1227.94 53.5674 1228.74C54.3669 1229.54 61.6957 1230.61 69.6909 1231.01C90.7447 1231.95 102.737 1228.07 120.593 1214.45C141.647 1198.42 147.777 1186.93 207.474 1049.61C211.205 1041.2 218.4 1025.84 223.597 1015.55C231.592 999.655 234.39 995.647 241.986 988.167C254.645 975.744 258.109 974.943 329.133 966.794C396.159 959.181 421.476 948.628 450.126 916.302C456.655 908.822 459.986 904.146 470.78 887.316C473.045 883.575 478.642 871.42 482.772 861.268C484.638 856.459 487.17 852.051 488.236 851.25C494.765 847.109 536.473 833.484 559.659 827.874C617.757 813.848 657.5 811.115 698.5 811.115C705 811.115 745.373 814.115 753.5 815.05C761.627 815.985 807.126 817.385 789.919 818.39C772.472 792.714 780.741 799.274 772.745 795C770.662 793.878 759.123 790.199 735 787.667C716.135 785.686 700.83 786.186 694.5 785.667C688.17 785.148 657.5 784.667 618.69 787.667C584.044 791.674 531.543 804.097 502.494 815.05L493.566 818.39L494.232 814.115C495.964 803.162 496.364 796.349 496.497 777.381C496.764 752.803 496.231 751.601 483.439 750.666C476.51 750.265 475.444 750.532 472.512 753.604C469.447 756.944 469.314 757.879 468.914 777.381C468.781 788.602 467.981 802.761 467.182 808.906C462.385 843.235 445.062 880.77 424.275 902.276C405.753 921.378 383.5 930.862 346.455 935.404C294.487 941.682 257.71 947.292 248.115 950.097C238.255 953.036 227.461 959.715 219.333 968.13C206.008 981.622 201.877 990.171 154.306 1098.37C123.525 1168.23 110.733 1189.47 94.2092 1197.48C87.6799 1200.56 84.8816 1201.09 73.9549 1201.09C62.4952 1201.22 60.4965 1200.82 53.5674 1197.22C37.8436 1189.33 27.8497 1173.17 28.3827 1156.47C28.6492 1144.85 35.0453 1131.5 44.906 1122.28C72.2226 1096.77 89.0124 1077.66 100.206 1059.63C112.332 1039.99 129.255 1007.27 146.844 969.466C149.376 963.989 152.174 957.978 152.973 956.375C153.773 954.639 158.437 950.097 163.234 946.357C191.617 923.916 199.878 915.901 205.608 904.681L210.405 895.33L211.338 861.936C212.67 817.054 215.602 795.147 225.463 756.41C247.183 670.653 299.551 595.716 374.705 543.086C430.005 504.215 501.028 478.034 571.918 470.553C606.031 466.947 654.135 468.817 689.58 475.362C711.3 479.236 743.28 479.369 758.205 475.362C772.329 471.622 791.118 462.138 800.046 454.257C809.373 445.975 819.501 430.48 822.965 418.859C825.23 411.512 825.763 407.104 825.23 397.754C824.697 387.334 824.031 384.663 819.501 375.446C815.236 366.763 811.505 361.955 796.181 346.326C763.535 312.798 750.742 295.433 736.351 265.378C721.827 235.189 713.565 206.47 709.568 172.675C706.902 151.169 708.102 104.551 711.7 88.1205C711.966 86.5176 713.299 85.1818 714.365 85.1818C716.497 85.1818 755.007 105.352 758.871 108.424C762.202 111.096 768.065 113.233 772.063 113.233C779.258 113.233 779.525 111.764 779.525 76.3656C779.525 52.3216 779.925 43.5055 781.124 42.3033C782.456 40.9676 784.055 41.5019 788.853 44.8413C792.184 47.2457 795.249 49.1157 795.648 49.1157C797.647 49.1157 827.762 74.3619 838.689 85.3153C853.48 100.142 875.2 127.125 883.728 141.284C892.256 155.444 901.584 172.274 904.649 178.953C906.514 183.228 909.712 190.174 911.578 194.315C919.173 211.012 928.634 239.063 933.831 260.836C938.628 280.205 940.893 293.162 945.291 328.026C947.556 345.124 949.954 360.218 950.621 361.554C952.619 365.294 960.348 368.366 967.81 368.366C980.736 368.366 1009.65 379.854 1030.71 393.345C1065.62 415.653 1089.74 438.628 1110.66 469.485C1121.45 485.247 1131.18 504.482 1133.31 514.367C1136.11 526.79 1130.51 538.411 1116.65 548.963C1104.53 558.18 1096.4 560.451 1067.75 562.722C1012.72 567.13 996.593 570.737 979.137 582.358C957.816 596.651 947.023 619.225 936.229 671.588C919.44 753.604 924.77 782.457 958.882 794.746C967.011 797.685 969.143 797.819 1005.39 797.819C1026.31 797.819 1064.68 797.551 1090.67 797.151L1137.97 796.483L1149.7 800.223C1168.62 806.1 1181.28 813.314 1194.21 825.736C1203.93 834.82 1207.93 843.369 1207.93 854.456C1207.8 869.817 1199.14 882.64 1183.15 890.655C1174.88 894.93 1173.28 895.33 1161.96 895.33C1153.16 895.33 1148.1 894.529 1143.84 892.792C1131.44 887.716 1124.11 883.976 1116.52 879.167C1105.06 871.687 1103.19 870.752 1090.67 867.012L1079.34 863.539L1009.38 862.604C935.03 861.535 927.301 860.867 897.72 853.921C850.948 842.701 812.838 813.18 789.919 770.435C780.058 752.001 774.595 733.835 770.73 706.452C769.398 697.235 768.465 694.563 765.267 690.823C762.202 687.35 760.203 686.281 756.872 686.281C743.014 686.281 739.15 694.029 741.681 716.47C744.48 741.85 757.805 776.045 775.128 802.761C787.653 821.863 798.18 832.816 822.166 851.65C825.23 854.055 848.016 866.611 854.146 869.283C873.468 877.832 900.251 884.511 926.768 887.449C937.429 888.651 965.012 889.587 1003.39 889.987C1036.97 890.388 1067.48 891.323 1072.68 892.258C1083.74 893.995 1091.73 897.334 1105.99 906.284C1118.92 914.298 1128.78 919.107 1138.64 921.912C1148.9 924.851 1170.62 924.985 1180.75 922.046C1206.73 914.699 1226.05 896.666 1233.25 873.156C1237.38 859.799 1236.58 840.029 1231.52 828.809C1217.52 798.086 1177.55 772.84 1134.78 767.764C1128.65 766.962 1096.13 767.096 1052.56 768.031C986.199 769.233 979.803 769.233 972.74 767.096C967.544 765.626 963.413 763.356 960.348 760.283L955.684 755.608L956.484 733.969C957.949 697.235 968.077 650.082 979.67 627.106C987.798 610.81 996.992 603.463 1015.65 597.986C1024.98 595.315 1033.1 594.513 1058.69 593.445C1089.47 592.109 1104.53 588.77 1123.18 579.018C1143.57 568.466 1159.43 548.028 1162.62 528.125C1164.22 518.107 1163.69 513.432 1159.69 500.608C1149.7 469.084 1110.79 417.657 1076.01 390.273C1050.16 369.836 1018.18 352.337 991.129 343.521L975.006 338.311L974.206 326.957C972.074 299.975 964.612 259.233 956.75 232.117C938.361 168.267 907.047 114.168 860.942 66.6145C838.422 43.5056 813.637 23.8696 788.853 9.57678C771.396 -0.575121 769.398 -1.24302 765.134 1.16138ZM224.53 624.702C228.527 626.171 234.657 629.778 237.988 632.583L244.251 637.659L238.388 647.41C229.06 662.638 216.801 687.751 210.405 704.581C207.207 713.13 204.275 720.344 204.009 720.611C203.609 721.011 198.945 719.141 193.615 716.603C169.63 704.849 157.237 684.411 160.436 661.436C162.035 650.349 166.432 641.934 174.027 634.987C188.951 621.496 206.674 617.89 224.53 624.702Z" fill="black" stroke="black" stroke-width="2" mask="url(#path-17-inside-1_1_2)"/>
<path d="M966.211 412.848C958.882 414.985 952.086 421.664 952.086 426.74C952.086 433.018 959.415 446.242 966.744 453.055C976.738 462.405 988.731 467.614 1002.06 468.282C1022.04 469.351 1030.17 462.539 1026.84 447.444C1023.91 433.686 1014.18 421.797 1000.19 415.386C991.662 411.378 975.405 410.176 966.211 412.848Z" fill="black"/>
<path d="M779.658 822.798C771.796 824.534 767.665 828.274 759.803 840.964C749.543 857.394 719.961 916.302 716.496 927.122C714.231 934.068 713.565 939.277 713.565 950.498C713.565 967.462 716.63 977.614 725.291 990.304C732.353 1000.99 738.083 1005.67 750.476 1011.81C760.47 1016.62 761.402 1016.75 774.861 1016.89C788.986 1016.89 792.184 1016.22 803.91 1010.47C811.505 1006.87 824.164 995.113 829.361 986.965C831.759 983.358 836.557 973.473 840.288 965.058C849.349 943.819 862.407 919.508 871.735 906.551C878.531 897.067 877.598 893.193 867.604 888.518C863.873 886.781 858.277 885.312 855.212 885.312C850.415 885.312 849.082 885.98 846.417 889.586C841.22 896.666 822.165 934.335 816.835 948.093C810.039 965.592 806.442 972.271 800.845 977.881C793.516 985.228 786.187 988.167 775.394 988.167C760.603 988.167 751.009 981.488 744.213 966.527C741.281 959.982 740.615 945.422 743.014 936.739C744.346 931.931 755.939 907.619 762.468 895.998C763.934 893.46 768.864 884.11 773.528 875.294C778.592 865.81 784.721 856.459 788.586 852.318C793.916 846.574 795.248 844.17 795.781 839.361C796.448 834.419 795.915 832.682 792.85 828.541C788.053 822.263 785.921 821.328 779.658 822.798Z" fill="black"/>
<path d="M543.669 854.723C540.737 855.524 535.007 856.993 530.876 858.062L523.414 860.199L514.886 877.698C502.094 904.146 492.367 921.912 481.706 938.743C468.248 959.848 461.585 968.264 447.727 982.156C425.207 1004.86 398.824 1018.62 365.511 1025.43C350.32 1028.51 344.723 1029.18 308.479 1031.58C292.755 1032.65 269.969 1034.79 257.843 1036.12C235.99 1038.66 235.856 1038.66 232.392 1042.93C227.595 1048.68 225.596 1056.96 227.328 1063.37C228.661 1068.18 228.794 1068.31 235.19 1068.31C238.788 1068.31 248.782 1067.11 257.443 1065.64C272.501 1062.97 302.616 1060.17 335.129 1058.3C355.117 1057.09 368.709 1054.69 387.764 1048.94C437.333 1033.85 474.911 1003.93 504.492 955.841C517.151 935.537 527.412 916.836 536.073 898.67C543.402 883.041 554.995 855.791 554.995 853.921C554.995 852.986 549.665 853.387 543.669 854.723Z" fill="black"/>
</g>
<defs>
<linearGradient id="paint0_linear_1_2" x1="762.153" y1="84.9188" x2="891.369" y2="371.546" gradientUnits="userSpaceOnUse">
<stop stop-color="#F7AFBB"/>
<stop offset="1" stop-color="#F394A5"/>
</linearGradient>
<clipPath id="clip0_1_2">
<rect width="1236" height="1232" fill="white"/>
</clipPath>
</defs>
</svg>
